<?xml version="1.0" standalone="no"?>
<!DOCTYPE svg PUBLIC "-//W3C//DTD SVG 20010904//EN"
 "http://www.w3.org/TR/2001/REC-SVG-20010904/DTD/svg10.dtd">
<svg version="1.1" xmlns="http://www.w3.org/2000/svg"
 width="100%" height="100%" viewBox="103 195 818 642"
 preserveAspectRatio="xMidYMid meet">
  <defs>
    <style id="current-color-scheme" type="text/css">
      .ColorScheme-Text {
        color: #eff0f1;
      }
    </style>
  </defs>
  <g transform="translate(0.000000,1024.000000) scale(0.100000,-0.100000)" fill="currentColor" class="ColorScheme-Text" stroke="none">
    <path d="M4615 8280 c-355 -38 -677 -289 -816 -635 -38 -95 -69 -238 -69 -318 0 -38 -4 -59 -12 -61 -7 -2 -51 -10 -97 -19 -234 -45 -448 -238 -515 -465 -28 -98 -38 -205 -26 -293 22 -161 83 -282 200 -399 83 -83 171 -139 270 -173 l65 -22 1475 -3 c1325 -2 1482 -1 1548 13 189 42 367 185 456 365 80 164 95 324 46 500 -66 233 -261 422 -489 474 l-55 12 -13 77 c-50 297 -297 523 -596 544 -99 7 -209 -17 -315 -69 -37 -18 -70 -34 -73 -36 -3 -1 -27 30 -54 70 -131 198 -347 354 -571 413 -60 16 -218 36 -264 33 -14 0 -56 -4 -95 -8z M2835 6516 c-42 -19 -525 -247 -736 -348 -149 -72 -177 -89 -186 -114 -7 -16 -30 -117 -52 -224 -22 -107 -90 -431 -151 -720 -61 -289 -128 -610 -150 -715 -43 -212 -187 -898 -255 -1220 -214 -1007 -270 -1283 -262 -1291 7 -8 24 -2 547 191 234 86 522 191 640 235 118 43 321 117 450 165 448 165 485 178 496 178 10 0 1065 -422 1645 -658 155 -63 290 -115 300 -115 10 0 150 53 311 119 234 95 1062 429 1548 624 l85 34 105 -38 c133 -48 713 -260 1160 -424 190 -70 417 -153 505 -185 88 -32 203 -75 255 -94 52 -20 100 -36 106 -36 15 0 19 -23 -331 1645 -70 330 -149 708 -175 840 -27 132 -69 335 -94 450 -24 116 -92 440 -151 720 -59 281 -114 521 -122 534 -9 14 -54 42 -111 68 -54 25 -176 82 -272 128 -395 187 -560 265 -564 265 -2 0 -6 -21 -9 -47 -4 -27 -9 -65 -13 -86 l-7 -37 84 -39 c112 -52 743 -352 746 -355 1 -1 43 -195 93 -431 50 -237 102 -479 115 -540 13 -60 51 -240 84 -400 33 -159 85 -409 116 -555 31 -146 74 -350 95 -455 22 -104 98 -471 169 -815 71 -344 128 -627 126 -629 -3 -2 -87 26 -187 63 -676 249 -1717 626 -1728 626 -8 0 -185 -69 -394 -154 -210 -85 -613 -247 -896 -361 -283 -114 -545 -220 -581 -236 l-65 -30 -60 26 c-32 15 -412 169 -844 342 -432 174 -838 337 -904 364 -65 27 -126 49 -135 49 -9 0 -91 -27 -182 -61 -200 -74 -853 -313 -1353 -495 -203 -74 -372 -133 -376 -132 -7 3 34 204 235 1163 68 325 167 799 221 1055 53 256 151 721 218 1034 l121 569 414 199 c228 109 415 199 417 200 2 3 -23 144 -29 160 -1 3 -15 1 -32 -6z M2810 6137 c-69 -34 -228 -111 -355 -171 -126 -60 -233 -112 -237 -115 -8 -7 -15 -39 -283 -1316 -113 -539 -221 -1054 -240 -1145 -111 -526 -205 -982 -205 -990 0 -9 26 0 510 175 730 264 1038 377 1070 393 l35 17 27 315 c39 447 103 1170 143 1615 19 209 41 468 50 575 9 107 18 218 21 245 l6 50 -86 58 c-104 71 -205 178 -266 280 -25 42 -49 76 -55 76 -5 0 -66 -28 -135 -62z M7262 6154 c-74 -126 -192 -253 -301 -322 -69 -43 -71 -47 -65 -97 2 -22 20 -224 39 -450 19 -225 51 -588 70 -805 19 -217 46 -523 60 -680 14 -157 34 -391 45 -520 28 -326 17 -293 103 -328 40 -17 135 -53 212 -81 496 -179 1173 -424 1243 -450 61 -23 82 -27 82 -17 0 14 -74 376 -145 711 -20 94 -70 330 -110 525 -120 574 -187 895 -295 1405 -56 264 -117 551 -135 639 -18 87 -37 162 -42 166 -8 8 -721 350 -729 350 -3 0 -17 -21 -32 -46z M3526 5672 c-3 -26 -19 -209 -36 -407 -16 -198 -37 -432 -45 -520 -8 -88 -46 -504 -84 -925 -39 -421 -72 -782 -75 -803 l-4 -39 66 -30 c56 -25 797 -325 1484 -600 98 -40 180 -69 182 -67 3 3 6 396 6 874 l2 868 -61 23 c-250 90 -370 349 -281 604 16 47 30 85 30 85 0 1 -32 29 -70 64 l-71 63 -59 -59 c-259 -262 -702 -143 -795 212 -40 156 -12 257 157 554 32 57 57 106 54 108 -2 2 -73 8 -158 13 -84 5 -160 11 -168 14 -64 20 -67 19 -74 -32z M6620 5699 c-25 -4 -81 -8 -125 -9 -44 -1 -104 -5 -132 -8 l-53 -7 94 -168 c120 -215 140 -275 134 -399 -6 -111 -30 -182 -92 -265 -77 -105 -202 -170 -346 -180 -137 -10 -260 37 -367 139 l-62 60 -71 -63 c-50 -44 -69 -67 -64 -78 40 -96 54 -152 54 -227 0 -201 -107 -364 -290 -441 -36 -15 -68 -32 -72 -38 -4 -5 -8 -398 -8 -872 0 -684 3 -863 13 -863 6 0 89 31 182 69 94 38 424 171 735 296 311 124 620 249 688 277 l122 50 -4 32 c-6 37 -10 81 -36 386 -11 129 -29 330 -40 445 -22 231 -107 1196 -140 1590 -11 138 -23 258 -26 268 -6 18 -21 19 -94 6z M4153 5643 c-42 -59 -208 -360 -231 -417 -44 -109 -18 -222 68 -300 57 -52 103 -69 181 -70 151 -1 279 123 279 269 0 70 -54 185 -203 430 -33 55 -64 104 -67 108 -4 5 -16 -4 -27 -20z M6037 5618 c-69 -107 -201 -343 -220 -393 -14 -38 -18 -67 -15 -120 5 -79 23 -119 75 -171 130 -130 351 -96 436 66 26 49 28 63 25 131 -3 86 -15 111 -163 369 -112 195 -98 182 -138 118z M4766 5559 c-82 -128 -99 -171 -94 -236 7 -83 67 -135 158 -136 125 -2 197 121 139 236 -28 55 -128 215 -137 221 -4 2 -34 -36 -66 -85z M5372 5457 c-75 -127 -92 -165 -92 -215 0 -44 29 -93 73 -126 21 -16 43 -21 87 -21 66 0 99 18 138 75 26 40 29 106 6 153 -25 51 -138 237 -144 237 -3 0 -33 -46 -68 -103z M5022 4868 c-154 -262 -166 -290 -167 -383 0 -91 15 -132 71 -189 56 -58 108 -80 189 -80 161 -1 275 107 275 261 0 38 -8 83 -20 115 -24 62 -231 420 -247 425 -6 2 -51 -65 -101 -149z"/>
  </g>
</svg>
