<?xml version="1.0" standalone="no"?>
<!DOCTYPE svg PUBLIC "-//W3C//DTD SVG 20010904//EN"
 "http://www.w3.org/TR/2001/REC-SVG-20010904/DTD/svg10.dtd">
<svg version="1.1" xmlns="http://www.w3.org/2000/svg"
 width="100%" height="100%" viewBox="110 75 828 828"
 preserveAspectRatio="xMidYMid meet">
  <defs>
    <style id="current-color-scheme" type="text/css">
      .ColorScheme-Text {
        color: #eff0f1;
      }
    </style>
  </defs>
<g transform="translate(0.000000,1024.000000) scale(0.100000,-0.100000)" fill="currentColor" class="ColorScheme-Text" stroke="none">

<path d="M6963 9400 c-273 -35 -507 -153 -710 -359 -83 -84 -190 -238 -242
-348 l-35 -73 -40 8 c-77 14 -267 7 -336 -11 -262 -71 -473 -285 -537 -545
-22 -87 -21 -254 1 -347 22 -94 94 -237 153 -307 96 -113 212 -190 358 -239
l70 -24 1380 -3 c1541 -3 1461 -6 1610 67 237 117 377 341 379 606 0 125 -14
185 -71 304 -110 224 -331 361 -582 361 l-97 0 -18 58 c-55 174 -175 372 -306
502 -172 173 -376 284 -615 335 -90 19 -270 26 -362 15z m357 -460 c103 -34
183 -78 253 -135 158 -130 250 -294 297 -525 24 -120 50 -168 115 -206 58 -33
115 -39 207 -20 152 31 246 15 315 -56 53 -54 73 -102 73 -175 -1 -93 -50
-175 -134 -221 -29 -16 -123 -17 -1386 -17 l-1355 0 -47 23 c-106 52 -170 150
-176 269 -7 127 46 229 154 293 56 34 62 35 159 35 92 0 105 -3 169 -33 125
-59 198 -60 279 -5 52 36 75 78 102 187 34 136 108 276 198 373 108 115 222
183 382 229 78 22 311 13 395 -16z"/>
<path d="M2460 7799 c-269 -20 -493 -128 -685 -330 -151 -159 -244 -343 -286
-569 -18 -94 -18 -4665 0 -4760 84 -455 434 -792 882 -850 46 -6 1018 -9 2529
-10 2646 0 2533 -2 2706 51 300 92 552 347 653 659 53 165 51 101 51 2043 0
1392 -3 1809 -12 1841 -27 87 -143 157 -235 140 -78 -14 -146 -65 -176 -133
-9 -19 -13 -332 -17 -1145 l-5 -1119 -195 -64 c-386 -127 -728 -219 -955 -258
-422 -71 -761 -33 -1074 124 -126 63 -197 115 -312 230 -120 120 -177 200
-326 456 -170 290 -265 418 -413 550 -134 120 -290 195 -495 237 -82 17 -138
21 -305 22 -298 0 -484 -29 -1160 -179 -381 -85 -673 -145 -702 -145 -18 0
-19 33 -16 1118 4 1252 -2 1155 79 1320 70 143 193 249 366 315 l58 22 1035 5
c987 5 1037 6 1073 24 71 35 117 115 117 202 -1 91 -78 183 -170 203 -59 13
-1843 13 -2010 0z m1585 -3339 c228 -57 345 -169 560 -534 173 -292 243 -395
360 -527 279 -312 675 -504 1155 -560 126 -14 392 -7 563 16 267 35 713 149
1081 274 50 17 93 31 98 31 4 0 8 -211 8 -468 0 -437 -1 -474 -20 -548 -50
-195 -213 -358 -407 -408 -55 -14 -319 -16 -2544 -16 -2755 0 -2545 -5 -2682
67 -93 49 -187 144 -232 237 -73 148 -69 74 -72 1153 l-4 971 53 11 c29 6 148
29 263 52 116 22 280 56 365 75 604 135 776 166 1095 198 88 9 281 -4 360 -24z"/>
<path d="M3216 3766 c-93 -34 -141 -104 -140 -201 0 -83 17 -111 147 -242
l110 -112 -38 -43 c-20 -24 -71 -76 -111 -116 -41 -40 -81 -87 -90 -103 -70
-135 36 -309 189 -309 75 0 109 21 234 144 l123 119 47 -45 c27 -25 81 -77
121 -117 82 -80 122 -101 194 -101 146 0 250 160 193 297 -9 20 -67 89 -132
155 l-117 118 116 118 c68 68 124 133 133 154 36 89 6 195 -72 254 -52 40
-107 50 -176 33 -47 -11 -64 -24 -180 -137 l-127 -126 -115 117 c-63 64 -128
123 -145 132 -45 23 -118 28 -164 11z"/>
<path d="M6326 6895 c-21 -7 -51 -26 -67 -41 -17 -16 -128 -221 -270 -498
-133 -259 -326 -635 -429 -836 -104 -201 -191 -380 -195 -398 -24 -117 93
-252 220 -252 50 0 108 24 145 60 26 25 85 130 205 365 92 182 196 384 230
450 34 66 151 294 259 506 179 354 196 391 196 438 0 157 -145 259 -294 206z"/>
<path d="M7543 6889 c-24 -12 -53 -33 -66 -48 -13 -16 -101 -183 -197 -372
-95 -189 -285 -561 -421 -826 -136 -264 -250 -495 -254 -513 -19 -89 32 -192
117 -234 75 -38 138 -35 208 7 65 39 39 -9 554 1005 359 704 368 724 368 781
0 163 -167 271 -309 200z"/>
</g>
</svg>
